<?xml version="1.0" encoding="iso-8859-1"?>
<!-- Generator: Adobe Illustrator 25.0.0, SVG Export Plug-In . SVG Version: 6.00 Build 0)  -->
<svg version="1.1" id="Layer_1" xmlns="http://www.w3.org/2000/svg" xmlns:xlink="http://www.w3.org/1999/xlink" x="0px" y="0px"
	 viewBox="0 0 213 318" style="enable-background:new 0 0 213 318;" xml:space="preserve">
<g style="display:none;">
	<rect x="-9.5" y="-17.5" style="display:inline;" width="241" height="349"/>
	<path style="display:inline;fill:#FFFFFF;" d="M231-17v348H-9V-17H231 M232-18H-10v350h242V-18L232-18z"/>
</g>
<g>
	<g>
		<g>
			<g>
				<path style="fill:#231F20;" d="M106.494,46.258v30.97c0,0.633,0.983,0.634,0.983,0v-30.97
					C107.477,45.625,106.494,45.624,106.494,46.258z"/>
				<path style="fill:#231F20;" d="M106.494,34.951v4.916c0,0.633,0.983,0.634,0.983,0v-4.916
					C107.477,34.319,106.494,34.318,106.494,34.951z"/>
			</g>
			<g>
				<path style="fill:#231F20;" d="M73.051,60.518L94.95,82.417c0.447,0.447,1.143-0.247,0.695-0.695L73.746,59.823
					C73.299,59.375,72.603,60.07,73.051,60.518z"/>
				<path style="fill:#231F20;" d="M65.056,52.523l3.476,3.476c0.447,0.447,1.143-0.247,0.695-0.695l-3.476-3.476
					C65.304,51.38,64.608,52.075,65.056,52.523z"/>
			</g>
			<g>
				<path style="fill:#231F20;" d="M59.487,94.249h30.97c0.633,0,0.634-0.983,0-0.983h-30.97
					C58.854,93.266,58.853,94.249,59.487,94.249z"/>
				<path style="fill:#231F20;" d="M48.18,94.249h4.916c0.633,0,0.634-0.983,0-0.983H48.18
					C47.547,93.266,47.546,94.249,48.18,94.249z"/>
			</g>
			<g>
				<path style="fill:#231F20;" d="M73.746,127.692l21.899-21.899c0.447-0.447-0.247-1.143-0.695-0.695l-21.899,21.899
					C72.604,127.444,73.298,128.14,73.746,127.692z"/>
				<path style="fill:#231F20;" d="M65.751,135.687l3.476-3.476c0.447-0.447-0.247-1.143-0.695-0.695l-3.476,3.476
					C64.609,135.439,65.303,136.135,65.751,135.687z"/>
			</g>
			<g>
				<path style="fill:#231F20;" d="M107.477,141.257v-30.97c0-0.633-0.983-0.634-0.983,0v30.97
					C106.494,141.889,107.477,141.89,107.477,141.257z"/>
				<path style="fill:#231F20;" d="M107.477,152.563v-4.916c0-0.633-0.983-0.634-0.983,0v4.916
					C106.494,153.196,107.477,153.197,107.477,152.563z"/>
			</g>
			<g>
				<path style="fill:#231F20;" d="M140.921,126.997l-21.899-21.899c-0.447-0.447-1.143,0.247-0.695,0.695l21.899,21.899
					C140.673,128.139,141.369,127.445,140.921,126.997z"/>
				<path style="fill:#231F20;" d="M148.916,134.992l-3.476-3.476c-0.447-0.447-1.143,0.247-0.695,0.695l3.476,3.476
					C148.668,136.134,149.364,135.44,148.916,134.992z"/>
			</g>
			<g>
				<path style="fill:#231F20;" d="M154.485,93.266h-30.97c-0.633,0-0.634,0.983,0,0.983h30.97
					C155.118,94.249,155.119,93.266,154.485,93.266z"/>
				<path style="fill:#231F20;" d="M165.792,93.266h-4.916c-0.633,0-0.634,0.983,0,0.983h4.916
					C166.424,94.249,166.425,93.266,165.792,93.266z"/>
			</g>
			<g>
				<path style="fill:#231F20;" d="M140.225,59.823l-21.899,21.899c-0.447,0.447,0.247,1.143,0.695,0.695l21.899-21.899
					C141.368,60.071,140.673,59.375,140.225,59.823z"/>
				<path style="fill:#231F20;" d="M148.22,51.828l-3.476,3.476c-0.447,0.447,0.247,1.143,0.695,0.695l3.476-3.476
					C149.363,52.076,148.668,51.38,148.22,51.828z"/>
			</g>
		</g>
		<g>
			<g>
				<path style="fill:#231F20;" d="M50.197,70.767l37.242,15.426c0.584,0.242,0.962-0.666,0.376-0.908L50.574,69.859
					C49.989,69.616,49.612,70.524,50.197,70.767z"/>
				<path style="fill:#231F20;" d="M32.939,63.618l10.9,4.515c0.584,0.242,0.962-0.666,0.376-0.908l-10.9-4.515
					C32.731,62.468,32.354,63.376,32.939,63.618z"/>
			</g>
			<g>
				<path style="fill:#231F20;" d="M50.574,117.656l37.242-15.426c0.584-0.242,0.209-1.151-0.376-0.908l-37.242,15.426
					C49.613,116.99,49.988,117.899,50.574,117.656z"/>
				<path style="fill:#231F20;" d="M33.315,124.805l10.9-4.515c0.584-0.242,0.209-1.151-0.376-0.908l-10.9,4.515
					C32.354,124.139,32.73,125.047,33.315,124.805z"/>
			</g>
			<g>
				<path style="fill:#231F20;" d="M83.995,150.546l15.426-37.242c0.242-0.584-0.666-0.962-0.908-0.376L83.087,150.17
					C82.845,150.754,83.753,151.131,83.995,150.546z"/>
				<path style="fill:#231F20;" d="M76.847,167.804l4.515-10.9c0.242-0.584-0.666-0.962-0.908-0.376l-4.515,10.9
					C75.696,168.013,76.604,168.39,76.847,167.804z"/>
			</g>
			<g>
				<path style="fill:#231F20;" d="M130.885,150.17l-15.426-37.242c-0.242-0.584-1.151-0.209-0.908,0.376l15.426,37.242
					C130.218,151.13,131.127,150.755,130.885,150.17z"/>
				<path style="fill:#231F20;" d="M138.033,167.428l-4.515-10.9c-0.242-0.584-1.151-0.209-0.908,0.376l4.515,10.9
					C137.367,168.389,138.276,168.013,138.033,167.428z"/>
			</g>
			<g>
				<path style="fill:#231F20;" d="M163.774,116.748l-37.242-15.426c-0.584-0.242-0.962,0.666-0.376,0.908l37.242,15.426
					C163.983,117.898,164.36,116.99,163.774,116.748z"/>
				<path style="fill:#231F20;" d="M181.033,123.896l-10.9-4.515c-0.584-0.242-0.962,0.666-0.376,0.908l10.9,4.515
					C181.241,125.047,181.618,124.139,181.033,123.896z"/>
			</g>
			<g>
				<path style="fill:#231F20;" d="M163.398,69.859l-37.242,15.426c-0.584,0.242-0.209,1.151,0.376,0.908l37.242-15.426
					C164.359,70.525,163.984,69.616,163.398,69.859z"/>
				<path style="fill:#231F20;" d="M180.657,62.71l-10.9,4.515c-0.584,0.242-0.209,1.151,0.376,0.908l10.9-4.515
					C181.617,63.376,181.242,62.467,180.657,62.71z"/>
			</g>
			<g>
				<path style="fill:#231F20;" d="M129.976,36.969L114.55,74.211c-0.242,0.584,0.666,0.962,0.908,0.376l15.426-37.242
					C131.127,36.761,130.219,36.383,129.976,36.969z"/>
				<path style="fill:#231F20;" d="M137.125,19.71l-4.515,10.9c-0.242,0.584,0.666,0.962,0.908,0.376l4.515-10.9
					C138.275,19.502,137.368,19.125,137.125,19.71z"/>
			</g>
			<g>
				<path style="fill:#231F20;" d="M83.087,37.345l15.426,37.242c0.242,0.584,1.151,0.209,0.908-0.376L83.995,36.969
					C83.753,36.384,82.845,36.76,83.087,37.345z"/>
				<path style="fill:#231F20;" d="M75.938,20.087l4.515,10.9c0.242,0.584,1.151,0.209,0.908-0.376l-4.515-10.9
					C76.605,19.126,75.696,19.501,75.938,20.087z"/>
			</g>
		</g>
	</g>
	<g>
		<g>
			<g>
				<path style="fill:#231F20;" d="M132.628,53.771l-16.987,25.896c-0.347,0.529,0.475,1.069,0.822,0.539L133.45,54.31
					C133.797,53.781,132.976,53.241,132.628,53.771z"/>
				<path style="fill:#231F20;" d="M138.83,44.317l-2.696,4.11c-0.347,0.529,0.475,1.069,0.822,0.539l2.696-4.11
					C139.999,44.327,139.178,43.787,138.83,44.317z"/>
			</g>
			<g>
				<path style="fill:#231F20;" d="M96.843,47.351l6.299,30.323c0.129,0.619,1.092,0.42,0.963-0.2l-6.299-30.323
					C97.677,46.532,96.714,46.73,96.843,47.351z"/>
				<path style="fill:#231F20;" d="M94.544,36.281l1,4.813c0.129,0.619,1.092,0.42,0.963-0.2l-1-4.813
					C95.378,35.461,94.415,35.66,94.544,36.281z"/>
			</g>
			<g>
				<path style="fill:#231F20;" d="M67,68.115l25.896,16.987c0.529,0.347,1.069-0.475,0.539-0.822L67.539,67.293
					C67.01,66.946,66.47,67.767,67,68.115z"/>
				<path style="fill:#231F20;" d="M57.546,61.913l4.11,2.696c0.529,0.347,1.069-0.475,0.539-0.822l-4.11-2.696
					C57.556,60.744,57.016,61.566,57.546,61.913z"/>
			</g>
			<g>
				<path style="fill:#231F20;" d="M60.579,103.9l30.323-6.299c0.619-0.129,0.42-1.091-0.2-0.963l-30.323,6.299
					C59.76,103.066,59.959,104.029,60.579,103.9z"/>
				<path style="fill:#231F20;" d="M49.509,106.2l4.813-1c0.619-0.129,0.42-1.091-0.2-0.963l-4.813,1
					C48.69,105.366,48.889,106.329,49.509,106.2z"/>
			</g>
			<g>
				<path style="fill:#231F20;" d="M81.343,133.744l16.987-25.896c0.347-0.529-0.475-1.069-0.822-0.539l-16.987,25.896
					C80.174,133.733,80.996,134.273,81.343,133.744z"/>
				<path style="fill:#231F20;" d="M75.142,143.197l2.696-4.11c0.347-0.529-0.475-1.069-0.822-0.539l-2.696,4.11
					C73.973,143.187,74.794,143.727,75.142,143.197z"/>
			</g>
			<g>
				<path style="fill:#231F20;" d="M117.128,140.164l-6.299-30.323c-0.129-0.619-1.092-0.42-0.963,0.2l6.299,30.323
					C116.295,140.983,117.257,140.784,117.128,140.164z"/>
				<path style="fill:#231F20;" d="M119.428,151.234l-1-4.813c-0.129-0.619-1.092-0.42-0.963,0.2l1,4.813
					C118.594,152.053,119.557,151.854,119.428,151.234z"/>
			</g>
			<g>
				<path style="fill:#231F20;" d="M146.972,119.4l-25.896-16.987c-0.529-0.347-1.069,0.475-0.539,0.822l25.896,16.987
					C146.962,120.569,147.502,119.747,146.972,119.4z"/>
				<path style="fill:#231F20;" d="M156.426,125.601l-4.11-2.696c-0.529-0.347-1.069,0.475-0.539,0.822l4.11,2.696
					C156.416,126.771,156.956,125.949,156.426,125.601z"/>
			</g>
			<g>
				<path style="fill:#231F20;" d="M153.392,83.615l-30.323,6.299c-0.619,0.129-0.42,1.091,0.2,0.963l30.323-6.299
					C154.212,84.449,154.013,83.486,153.392,83.615z"/>
				<path style="fill:#231F20;" d="M164.463,81.315l-4.813,1c-0.619,0.129-0.42,1.092,0.2,0.963l4.813-1
					C165.282,82.149,165.083,81.186,164.463,81.315z"/>
			</g>
		</g>
		<g>
			<g>
				<path style="fill:#231F20;" d="M72.113,43.385l22.679,33.326c0.356,0.523,1.169-0.029,0.813-0.553L72.925,42.832
					C72.569,42.309,71.756,42.861,72.113,43.385z"/>
				<path style="fill:#231F20;" d="M61.603,27.942l6.638,9.754c0.356,0.523,1.169-0.029,0.813-0.553l-6.638-9.754
					C62.06,26.865,61.246,27.418,61.603,27.942z"/>
			</g>
			<g>
				<path style="fill:#231F20;" d="M46.708,82.798l39.601,7.529c0.621,0.118,0.806-0.848,0.184-0.966l-39.601-7.529
					C46.27,81.714,46.086,82.68,46.708,82.798z"/>
				<path style="fill:#231F20;" d="M28.357,79.309l11.591,2.204c0.621,0.118,0.806-0.848,0.184-0.966L28.54,78.343
					C27.919,78.225,27.734,79.191,28.357,79.309z"/>
			</g>
			<g>
				<path style="fill:#231F20;" d="M56.614,128.631l33.326-22.679c0.523-0.356-0.029-1.169-0.553-0.813l-33.326,22.679
					C55.538,128.174,56.09,128.987,56.614,128.631z"/>
				<path style="fill:#231F20;" d="M41.17,139.14l9.754-6.638c0.523-0.356-0.029-1.169-0.553-0.813l-9.754,6.638
					C40.094,138.683,40.646,139.497,41.17,139.14z"/>
			</g>
			<g>
				<path style="fill:#231F20;" d="M96.027,154.035l7.529-39.601c0.118-0.621-0.848-0.806-0.966-0.184l-7.529,39.601
					C94.943,154.473,95.908,154.658,96.027,154.035z"/>
				<path style="fill:#231F20;" d="M92.538,172.387l2.204-11.591c0.118-0.621-0.848-0.806-0.966-0.184l-2.204,11.591
					C91.454,172.825,92.419,173.009,92.538,172.387z"/>
			</g>
			<g>
				<path style="fill:#231F20;" d="M141.859,144.129l-22.679-33.326c-0.356-0.523-1.169,0.029-0.813,0.553l22.679,33.326
					C141.402,145.206,142.216,144.653,141.859,144.129z"/>
				<path style="fill:#231F20;" d="M152.369,159.573l-6.638-9.754c-0.356-0.523-1.169,0.029-0.813,0.553l6.638,9.754
					C151.912,160.649,152.725,160.097,152.369,159.573z"/>
			</g>
			<g>
				<path style="fill:#231F20;" d="M167.264,104.717l-39.601-7.529c-0.621-0.118-0.806,0.848-0.184,0.966l39.601,7.529
					C167.701,105.801,167.886,104.835,167.264,104.717z"/>
				<path style="fill:#231F20;" d="M185.615,108.205l-11.591-2.204c-0.621-0.118-0.806,0.848-0.184,0.966l11.591,2.204
					C186.053,109.29,186.238,108.324,185.615,108.205z"/>
			</g>
			<g>
				<path style="fill:#231F20;" d="M157.358,58.884l-33.326,22.679c-0.523,0.356,0.029,1.169,0.553,0.813l33.326-22.679
					C158.434,59.341,157.882,58.527,157.358,58.884z"/>
				<path style="fill:#231F20;" d="M172.802,48.374l-9.754,6.638c-0.523,0.356,0.029,1.169,0.553,0.813l9.754-6.638
					C173.878,48.831,173.326,48.018,172.802,48.374z"/>
			</g>
			<g>
				<path style="fill:#231F20;" d="M117.945,33.48l-7.529,39.601c-0.118,0.621,0.848,0.806,0.966,0.184l7.529-39.601
					C119.029,33.042,118.064,32.857,117.945,33.48z"/>
				<path style="fill:#231F20;" d="M121.434,15.128l-2.204,11.591c-0.118,0.621,0.848,0.806,0.966,0.184l2.204-11.591
					C122.518,14.69,121.552,14.505,121.434,15.128z"/>
			</g>
		</g>
	</g>
	<g>
		<g>
			<g>
				<path style="fill:#231F20;" d="M96.444,69.591l5.079,12.263c0.242,0.584,1.151,0.209,0.908-0.376l-5.079-12.263
					C97.11,68.63,96.201,69.006,96.444,69.591z"/>
				<path style="fill:#231F20;" d="M78.196,25.537l15.05,36.334c0.242,0.584,1.151,0.209,0.908-0.376L79.104,25.16
					C78.862,24.576,77.953,24.951,78.196,25.537z"/>
			</g>
			<g>
				<path style="fill:#231F20;" d="M82.443,84.124l12.263,5.079c0.584,0.242,0.962-0.666,0.376-0.908L82.82,83.215
					C82.235,82.973,81.858,83.881,82.443,84.124z"/>
				<path style="fill:#231F20;" d="M38.389,65.876l36.334,15.05c0.584,0.242,0.962-0.666,0.376-0.908l-36.334-15.05
					C38.181,64.725,37.804,65.633,38.389,65.876z"/>
			</g>
			<g>
				<path style="fill:#231F20;" d="M82.82,104.299l12.263-5.079c0.584-0.242,0.209-1.151-0.376-0.908l-12.263,5.079
					C81.859,103.633,82.234,104.542,82.82,104.299z"/>
				<path style="fill:#231F20;" d="M38.765,122.547l36.334-15.05c0.584-0.242,0.209-1.151-0.376-0.908l-36.334,15.05
					C37.805,121.881,38.18,122.79,38.765,122.547z"/>
			</g>
			<g>
				<path style="fill:#231F20;" d="M97.352,118.3l5.079-12.263c0.242-0.584-0.666-0.962-0.908-0.376l-5.079,12.263
					C96.202,118.508,97.11,118.885,97.352,118.3z"/>
				<path style="fill:#231F20;" d="M79.104,162.354l15.05-36.334c0.242-0.584-0.666-0.962-0.908-0.376l-15.05,36.334
					C77.954,162.562,78.862,162.94,79.104,162.354z"/>
			</g>
			<g>
				<path style="fill:#231F20;" d="M117.528,117.924l-5.079-12.263c-0.242-0.584-1.151-0.209-0.908,0.376l5.079,12.263
					C116.862,118.884,117.77,118.509,117.528,117.924z"/>
				<path style="fill:#231F20;" d="M135.776,161.978l-15.05-36.334c-0.242-0.584-1.151-0.209-0.908,0.376l15.05,36.334
					C135.11,162.939,136.018,162.563,135.776,161.978z"/>
			</g>
			<g>
				<path style="fill:#231F20;" d="M131.528,103.391l-12.263-5.079c-0.584-0.242-0.962,0.666-0.376,0.908l12.263,5.079
					C131.737,104.542,132.114,103.634,131.528,103.391z"/>
				<path style="fill:#231F20;" d="M175.583,121.639l-36.334-15.05c-0.584-0.242-0.962,0.666-0.376,0.908l36.334,15.05
					C175.791,122.789,176.168,121.882,175.583,121.639z"/>
			</g>
			<g>
				<path style="fill:#231F20;" d="M131.152,83.215l-12.263,5.079c-0.584,0.242-0.209,1.151,0.376,0.908l12.263-5.079
					C132.113,83.882,131.738,82.973,131.152,83.215z"/>
				<path style="fill:#231F20;" d="M175.207,64.967l-36.334,15.05c-0.584,0.242-0.209,1.151,0.376,0.908l36.334-15.05
					C176.167,65.634,175.792,64.725,175.207,64.967z"/>
			</g>
			<g>
				<path style="fill:#231F20;" d="M116.62,69.215l-5.079,12.263c-0.242,0.584,0.666,0.962,0.908,0.376l5.079-12.263
					C117.77,69.007,116.862,68.629,116.62,69.215z"/>
				<path style="fill:#231F20;" d="M134.868,25.16l-15.05,36.334c-0.242,0.584,0.666,0.962,0.908,0.376l15.05-36.334
					C136.018,24.952,135.11,24.575,134.868,25.16z"/>
			</g>
		</g>
		<g>
			<path style="fill:#231F20;" d="M106.494,38.974v43.751c0,0.633,0.983,0.634,0.983,0V38.974
				C107.477,38.341,106.494,38.34,106.494,38.974z"/>
			<path style="fill:#231F20;" d="M67.901,55.367l30.937,30.937c0.447,0.447,1.143-0.247,0.695-0.695L68.596,54.672
				C68.149,54.225,67.453,54.919,67.901,55.367z"/>
			<path style="fill:#231F20;" d="M52.203,94.249h43.751c0.633,0,0.634-0.983,0-0.983H52.203
				C51.57,93.266,51.569,94.249,52.203,94.249z"/>
			<path style="fill:#231F20;" d="M68.596,132.843l30.937-30.937c0.447-0.447-0.247-1.143-0.695-0.695l-30.937,30.937
				C67.453,132.595,68.148,133.291,68.596,132.843z"/>
			<path style="fill:#231F20;" d="M107.477,148.541v-43.751c0-0.633-0.983-0.634-0.983,0v43.751
				C106.494,149.173,107.477,149.174,107.477,148.541z"/>
			<path style="fill:#231F20;" d="M146.071,132.147l-30.937-30.937c-0.447-0.447-1.143,0.247-0.695,0.695l30.937,30.937
				C145.823,133.29,146.519,132.595,146.071,132.147z"/>
			<path style="fill:#231F20;" d="M161.769,93.266h-43.751c-0.633,0-0.634,0.983,0,0.983h43.751
				C162.402,94.249,162.403,93.266,161.769,93.266z"/>
			<path style="fill:#231F20;" d="M145.376,54.672l-30.937,30.937c-0.447,0.447,0.247,1.143,0.695,0.695l30.937-30.937
				C146.518,54.92,145.824,54.224,145.376,54.672z"/>
		</g>
	</g>
</g>
<circle style="fill:#FFFFFF;" cx="107.729" cy="90.747" r="35.67"/>
<path style="fill:#FFFFFF;" d="M111.948,252.345l-35.247-2.556l37.266-6.829l17.424-5.273l-6.405-3.813l-13.549,4.456l-66.882,13.99
	l-20.239-10.55l7.116-19.447l17.573-8.923l6.206-27.382l6.603-51.986l37.468-14.685l-8.29-14.833l-4.491-25.721l11.979-21.4
	l9.271-39.24l10.064,39.243l11.599,21.356l-5.403,25.631l-10.465,14.171l29.563,10.742l8.842,9.871l1.559,5.642l2.754,51.216
	l-13.983,8.795l43.766,23.614l3.764,15.555l-5.451,8.51L111.948,252.345z M55.036,210.076l25.472-10.85l6.23-20.368l-9.361-24.669
	l-7.483,30.924L55.036,210.076z M128.724,180.07l5.87,17.597l9.99-12.41l-8.084-31.11L128.724,180.07z"/>
<g>
	<polygon style="fill:none;stroke:#231F20;stroke-linecap:round;stroke-linejoin:round;stroke-miterlimit:10;" points="
		137.332,201.29 135.087,202.53 130.609,181.135 	"/>
	<polygon style="fill:none;stroke:#231F20;stroke-linecap:round;stroke-linejoin:round;stroke-miterlimit:10;" points="
		77.896,160.794 71.596,186.827 62.64,182.88 	"/>
	<polygon style="fill:none;stroke:#231F20;stroke-linecap:round;stroke-linejoin:round;stroke-miterlimit:10;" points="
		155.305,145.635 144.226,128.991 153.596,139.453 	"/>
	<polygon style="fill:none;stroke:#0C201C;stroke-linecap:round;stroke-linejoin:round;stroke-miterlimit:10;" points="
		114.532,223.798 120.708,234.216 103.229,230.268 	"/>
	<polygon style="fill:none;stroke:#0C201C;stroke-linecap:round;stroke-linejoin:round;stroke-miterlimit:10;" points="
		120.708,234.216 114.532,223.798 133.226,241.666 	"/>
	<polygon style="fill:none;stroke:#231F20;stroke-linecap:round;stroke-linejoin:round;stroke-miterlimit:10;" points="
		158.119,197.986 147.593,159.363 155.305,145.635 	"/>
	<polygon style="fill:none;stroke:#231F20;stroke-linecap:round;stroke-linejoin:round;stroke-miterlimit:10;" points="
		147.593,159.363 142.969,185.964 136.559,161.299 	"/>
	<polygon style="fill:none;stroke:#231F20;stroke-linecap:round;stroke-linejoin:round;stroke-miterlimit:10;" points="
		142.969,185.964 147.593,159.363 158.119,197.986 	"/>
	<polygon style="fill:none;stroke:#231F20;stroke-linecap:round;stroke-linejoin:round;stroke-miterlimit:10;" points="
		57.721,208.322 79.341,199.112 87.099,213.128 	"/>
	<polygon style="fill:none;stroke:#21514E;stroke-linecap:round;stroke-linejoin:round;stroke-miterlimit:10;" points="
		103.229,230.268 78.371,230.24 87.099,213.128 	"/>
	<polygon style="fill:none;stroke:#231F20;stroke-linecap:round;stroke-linejoin:round;stroke-miterlimit:10;" points="
		62.64,182.88 62.619,143.981 77.896,160.794 	"/>
	<polygon style="fill:none;stroke:#231F20;stroke-linecap:round;stroke-linejoin:round;stroke-miterlimit:10;" points="
		53.774,186.824 60.489,133.955 62.619,143.981 	"/>
	<polygon style="fill:none;stroke:#231F20;stroke-linecap:round;stroke-linejoin:round;stroke-miterlimit:10;" points="
		53.774,186.824 62.619,143.981 62.64,182.88 	"/>
	<polygon style="fill:none;stroke:#231F20;stroke-linecap:round;stroke-linejoin:round;stroke-miterlimit:10;" points="
		145.108,199.581 142.969,185.964 158.119,197.986 	"/>
	<polygon style="fill:none;stroke:#000000;stroke-linecap:round;stroke-linejoin:round;stroke-miterlimit:10;" points="
		100.369,215.719 114.532,223.798 103.229,230.268 	"/>
	<polygon style="fill:none;stroke:#000000;stroke-linecap:round;stroke-linejoin:round;stroke-miterlimit:10;" points="
		103.229,230.268 87.099,213.128 100.369,215.719 	"/>
	<polygon style="fill:none;stroke:#231F20;stroke-linecap:round;stroke-linejoin:round;stroke-miterlimit:10;" points="
		79.341,199.112 100.369,215.719 87.099,213.128 	"/>
	<polygon style="fill:none;stroke:#231F20;stroke-linecap:round;stroke-linejoin:round;stroke-miterlimit:10;" points="
		148.475,240.902 133.226,241.666 114.532,223.798 	"/>
	<polygon style="fill:none;stroke:#231F20;stroke-linecap:round;stroke-linejoin:round;stroke-miterlimit:10;" points="
		62.619,143.981 71.909,137.281 77.896,160.794 	"/>
	<polygon style="fill:none;stroke:#231F20;stroke-linecap:round;stroke-linejoin:round;stroke-miterlimit:10;" points="
		60.489,133.955 71.909,137.281 62.619,143.981 	"/>
	<polygon style="fill:none;stroke:#231F20;stroke-linecap:round;stroke-linejoin:round;stroke-miterlimit:10;" points="
		97.116,119.6 71.909,137.281 60.489,133.955 	"/>
	<polygon style="fill:none;stroke:#231F20;stroke-linecap:round;stroke-linejoin:round;stroke-miterlimit:10;" points="
		116.332,118.857 144.226,128.991 108.027,126.323 	"/>
	<polygon style="fill:none;stroke:#000000;stroke-linecap:round;stroke-linejoin:round;stroke-miterlimit:10;" points="
		108.027,126.323 71.909,137.281 97.116,119.6 	"/>
	<polygon style="fill:none;stroke:#231F20;stroke-linecap:round;stroke-linejoin:round;stroke-miterlimit:10;" points="
		130.609,181.135 135.087,202.53 116.332,186.237 	"/>
	<polygon style="fill:none;stroke:#231F20;stroke-linecap:round;stroke-linejoin:round;stroke-miterlimit:10;" points="
		116.332,186.237 135.087,202.53 114.532,223.798 	"/>
	<polygon style="fill:none;stroke:#231F20;stroke-linecap:round;stroke-linejoin:round;stroke-miterlimit:10;" points="
		116.332,186.237 114.532,223.798 100.369,215.719 	"/>
	<polygon style="fill:none;stroke:#231F20;stroke-linecap:round;stroke-linejoin:round;stroke-miterlimit:10;" points="
		100.369,215.719 100.319,186.416 116.332,186.237 	"/>
	<polygon style="fill:none;stroke:#000000;stroke-linecap:round;stroke-linejoin:round;stroke-miterlimit:10;" points="
		100.319,186.416 79.341,199.112 85.185,180.005 	"/>
	<polygon style="fill:none;stroke:#231F20;stroke-linecap:round;stroke-linejoin:round;stroke-miterlimit:10;" points="
		79.341,199.112 100.319,186.416 100.369,215.719 	"/>
	<polygon style="fill:none;stroke:#231F20;stroke-linecap:round;stroke-linejoin:round;stroke-miterlimit:10;" points="
		108.027,126.323 113.736,116.609 116.332,118.857 	"/>
	<polygon style="fill:none;stroke:#32214F;stroke-linecap:round;stroke-linejoin:round;stroke-miterlimit:10;" points="
		100.53,116.609 113.736,116.609 108.027,126.323 	"/>
	<polygon style="fill:none;stroke:#231F20;stroke-linecap:round;stroke-linejoin:round;stroke-miterlimit:10;" points="
		140.031,143.783 108.027,126.323 144.226,128.991 	"/>
	<polygon style="fill:none;stroke:#231F20;stroke-linecap:round;stroke-linejoin:round;stroke-miterlimit:10;" points="
		140.031,143.783 147.593,159.363 136.559,161.299 	"/>
	<polygon style="fill:none;stroke:#231F20;stroke-linecap:round;stroke-linejoin:round;stroke-miterlimit:10;" points="
		147.593,159.363 140.031,143.783 155.305,145.635 	"/>
	<polygon style="fill:none;stroke:#231F20;stroke-linecap:round;stroke-linejoin:round;stroke-miterlimit:10;" points="
		140.031,143.783 144.226,128.991 155.305,145.635 	"/>
	<polygon style="fill:none;stroke:#231F20;stroke-linecap:round;stroke-linejoin:round;stroke-miterlimit:10;" points="
		30.294,222.247 87.099,213.128 78.371,230.24 	"/>
	<polygon style="fill:none;stroke:#231F20;stroke-linecap:round;stroke-linejoin:round;stroke-miterlimit:10;" points="
		30.294,222.247 57.721,208.322 87.099,213.128 	"/>
	<polygon style="fill:#FFFFFF;stroke:#231F20;stroke-linecap:round;stroke-linejoin:round;stroke-miterlimit:10;" points="
		97.116,57.886 107.859,12.416 104.039,57.401 	"/>
	<polygon style="fill:none;stroke:#00555F;stroke-linecap:round;stroke-linejoin:round;stroke-miterlimit:10;" points="
		135.087,202.53 171.048,225.122 114.532,223.798 	"/>
	<polygon style="fill:none;stroke:#231F20;stroke-linecap:round;stroke-linejoin:round;stroke-miterlimit:10;" points="
		114.532,223.798 171.048,225.122 148.475,240.902 	"/>
	<polygon style="fill:none;stroke:#231F20;stroke-linecap:round;stroke-linejoin:round;stroke-miterlimit:10;" points="
		60.454,254.916 113.754,242.46 112.081,255.069 	"/>
	<polygon style="fill:none;stroke:#32214F;stroke-linecap:round;stroke-linejoin:round;stroke-miterlimit:10;" points="
		97.116,119.6 89.605,106.159 100.53,116.609 	"/>
	<polygon style="fill:none;stroke:#231F20;stroke-linecap:round;stroke-linejoin:round;stroke-miterlimit:10;" points="
		75.999,155.526 86.152,164.711 77.896,160.794 	"/>
	<polygon style="fill:none;stroke:#231F20;stroke-linecap:round;stroke-linejoin:round;stroke-miterlimit:10;" points="
		77.896,160.794 86.152,164.711 85.185,180.005 	"/>
	<polygon style="fill:#FFFFFF;stroke:#231F20;stroke-linecap:round;stroke-linejoin:round;stroke-miterlimit:10;" points="
		97.444,229.381 155.487,226.709 112.01,241.009 	"/>
	<polygon style="fill:none;stroke:#231F20;stroke-linecap:round;stroke-linejoin:round;stroke-miterlimit:10;" points="
		129.025,163.283 140.031,143.783 136.559,161.299 	"/>
	<polygon style="fill:none;stroke:#231F20;stroke-linecap:round;stroke-linejoin:round;stroke-miterlimit:10;" points="
		129.025,163.283 130.609,181.135 116.332,186.237 	"/>
	<polygon style="fill:none;stroke:#231F20;stroke-linecap:round;stroke-linejoin:round;stroke-miterlimit:10;" points="
		130.609,181.135 129.025,163.283 136.559,161.299 	"/>
	<polygon style="fill:none;stroke:#231F20;stroke-linecap:round;stroke-linejoin:round;stroke-miterlimit:10;" points="
		103.67,165.544 100.319,186.416 85.185,180.005 	"/>
	<polygon style="fill:none;stroke:#231F20;stroke-linecap:round;stroke-linejoin:round;stroke-miterlimit:10;" points="
		129.025,163.283 116.332,186.237 103.67,165.544 	"/>
	<polygon style="fill:none;stroke:#231F20;stroke-linecap:round;stroke-linejoin:round;stroke-miterlimit:10;" points="
		140.031,143.783 129.025,163.283 103.67,165.544 	"/>
	<polygon style="fill:none;stroke:#231F20;stroke-linecap:round;stroke-linejoin:round;stroke-miterlimit:10;" points="
		85.185,180.005 86.152,164.711 103.67,165.544 	"/>
	<polygon style="fill:none;stroke:#231F20;stroke-linecap:round;stroke-linejoin:round;stroke-miterlimit:10;" points="
		103.67,165.544 116.332,186.237 100.319,186.416 	"/>
	<polygon style="fill:none;stroke:#231F20;stroke-linecap:round;stroke-linejoin:round;stroke-miterlimit:10;" points="
		116.332,118.857 113.736,116.609 125.71,106.159 	"/>
	<polygon style="fill:none;stroke:#231F20;stroke-linecap:round;stroke-linejoin:round;stroke-miterlimit:10;" points="
		171.048,225.122 135.087,202.53 187.637,228.433 	"/>
	<polygon style="fill:none;stroke:#000000;stroke-linecap:round;stroke-linejoin:round;stroke-miterlimit:10;" points="
		137.332,201.29 187.637,228.433 135.087,202.53 	"/>
	<polygon style="fill:none;stroke:#231F20;stroke-linecap:round;stroke-linejoin:round;stroke-miterlimit:10;" points="
		86.152,164.711 75.999,155.526 92.807,151.047 	"/>
	<polygon style="fill:none;stroke:#231F20;stroke-linecap:round;stroke-linejoin:round;stroke-miterlimit:10;" points="
		71.909,137.281 108.027,126.323 92.807,151.047 	"/>
	<polygon style="fill:none;stroke:#231F20;stroke-linecap:round;stroke-linejoin:round;stroke-miterlimit:10;" points="
		92.807,151.047 75.999,155.526 71.909,137.281 	"/>
	<polygon style="fill:none;stroke:#231F20;stroke-linecap:round;stroke-linejoin:round;stroke-miterlimit:10;" points="
		103.67,165.544 86.152,164.711 92.807,151.047 	"/>
	<polygon style="fill:none;stroke:#231F20;stroke-linecap:round;stroke-linejoin:round;stroke-miterlimit:10;" points="
		140.031,143.783 92.807,151.047 108.027,126.323 	"/>
	<polygon style="fill:none;stroke:#231F20;stroke-linecap:round;stroke-linejoin:round;stroke-miterlimit:10;" points="
		140.031,143.783 103.67,165.544 92.807,151.047 	"/>
	<polygon style="fill:none;stroke:#231F20;stroke-linecap:round;stroke-linejoin:round;stroke-miterlimit:10;" points="
		112.01,241.009 85.613,234.91 97.444,229.381 	"/>
	<polygon style="fill:#FFFFFF;stroke:#231F20;stroke-linecap:round;stroke-linejoin:round;stroke-miterlimit:10;" points="
		50.499,222.361 97.444,229.381 85.613,234.91 	"/>
	<polygon style="fill:none;stroke:#231F20;stroke-linecap:round;stroke-linejoin:round;stroke-miterlimit:10;" points="
		125.71,106.159 108.027,95.628 131.31,79.592 	"/>
	<polygon style="fill:none;stroke:#231F20;stroke-linecap:round;stroke-linejoin:round;stroke-miterlimit:10;" points="
		112.014,57.401 119.519,57.886 131.31,79.592 	"/>
	<polygon style="fill:#FFFFFF;stroke:#231F20;stroke-linecap:round;stroke-linejoin:round;stroke-miterlimit:10;" points="
		119.519,57.886 112.014,57.401 107.859,12.416 	"/>
	<polygon style="fill:none;stroke:#231F20;stroke-linecap:round;stroke-linejoin:round;stroke-miterlimit:10;" points="
		104.039,57.401 112.014,57.401 103.229,64.932 	"/>
	<polygon style="fill:none;stroke:#6DC1C0;stroke-linecap:round;stroke-linejoin:round;stroke-miterlimit:10;" points="
		44.582,255.095 31.326,243.103 85.613,234.91 	"/>
	<polygon style="fill:none;stroke:#231F20;stroke-linecap:round;stroke-linejoin:round;stroke-miterlimit:10;" points="
		112.014,57.401 103.229,64.932 114.532,64.932 	"/>
	<polygon style="fill:none;stroke:#320B1D;stroke-linecap:round;stroke-linejoin:round;stroke-miterlimit:10;" points="
		108.027,110.862 125.71,106.159 113.736,116.609 	"/>
	<polygon style="fill:none;stroke:#231F20;stroke-linecap:round;stroke-linejoin:round;stroke-miterlimit:10;" points="
		89.605,106.159 108.027,110.862 100.53,116.609 	"/>
	<polygon style="fill:none;stroke:#231F20;stroke-linecap:round;stroke-linejoin:round;stroke-miterlimit:10;" points="
		113.736,116.609 100.53,116.609 108.027,110.862 	"/>
	<polygon style="fill:none;stroke:#231F20;stroke-linecap:round;stroke-linejoin:round;stroke-miterlimit:10;" points="
		84.967,79.592 108.027,95.628 89.605,106.159 	"/>
	<polygon style="fill:none;stroke:#231F20;stroke-linecap:round;stroke-linejoin:round;stroke-miterlimit:10;" points="
		89.605,106.159 108.027,95.628 108.027,110.862 	"/>
	<polygon style="fill:none;stroke:#231F20;stroke-linecap:round;stroke-linejoin:round;stroke-miterlimit:10;" points="
		108.027,95.628 84.967,79.592 103.229,64.932 	"/>
	<polygon style="fill:none;stroke:#231F20;stroke-linecap:round;stroke-linejoin:round;stroke-miterlimit:10;" points="
		108.027,95.628 114.532,64.932 131.31,79.592 	"/>
	<polygon style="fill:none;stroke:#231F20;stroke-linecap:round;stroke-linejoin:round;stroke-miterlimit:10;" points="
		125.71,106.159 108.027,110.862 108.027,95.628 	"/>
	<polygon style="fill:none;stroke:#231F20;stroke-linecap:round;stroke-linejoin:round;stroke-miterlimit:10;" points="
		103.229,64.932 84.967,79.592 104.039,57.401 	"/>
	<polygon style="fill:none;stroke:#231F20;stroke-linecap:round;stroke-linejoin:round;stroke-miterlimit:10;" points="
		187.637,228.433 160.129,231.745 171.048,225.122 	"/>
	<polygon style="fill:#FFFFFF;stroke:#231F20;stroke-linecap:round;stroke-linejoin:round;stroke-miterlimit:10;" points="
		160.129,231.745 112.081,255.069 113.754,242.46 	"/>
	<polygon style="fill:#FFFFFF;stroke:#231F20;stroke-linecap:round;stroke-linejoin:round;stroke-miterlimit:10;" points="
		113.754,242.46 171.048,225.122 160.129,231.745 	"/>
	<polygon style="fill:none;stroke:#000000;stroke-linecap:round;stroke-linejoin:round;stroke-miterlimit:10;" points="
		47.699,213.626 53.774,186.824 62.64,182.88 	"/>
	<polygon style="fill:none;stroke:#231F20;stroke-linecap:round;stroke-linejoin:round;stroke-miterlimit:10;" points="
		47.699,213.626 62.64,182.88 71.596,186.827 	"/>
	<polygon style="fill:#FFFFFF;stroke:#231F20;stroke-linecap:round;stroke-linejoin:round;stroke-miterlimit:10;" points="
		71.596,186.827 53.174,217.78 47.699,213.626 	"/>
	<polygon style="fill:none;stroke:#231F20;stroke-linecap:round;stroke-linejoin:round;stroke-miterlimit:10;" points="
		50.499,222.361 85.613,234.91 31.326,243.103 	"/>
	<polygon style="fill:none;stroke:#231F20;stroke-linecap:round;stroke-linejoin:round;stroke-miterlimit:10;" points="
		31.326,243.103 22.394,243.835 30.294,222.247 	"/>
	<polygon style="fill:none;stroke:#231F20;stroke-linecap:round;stroke-linejoin:round;stroke-miterlimit:10;" points="
		30.294,222.247 50.499,222.361 31.326,243.103 	"/>
	<polygon style="fill:none;stroke:#231F20;stroke-linecap:round;stroke-linejoin:round;stroke-miterlimit:10;" points="
		31.326,243.103 44.582,255.095 22.394,243.835 	"/>
	<polygon style="fill:#FFFFFF;stroke:#231F20;stroke-linecap:round;stroke-linejoin:round;stroke-miterlimit:10;" points="
		53.848,239.821 47.699,213.626 53.174,217.78 	"/>
	<polygon style="fill:#FFFFFF;stroke:#231F20;stroke-linecap:round;stroke-linejoin:round;stroke-miterlimit:10;" points="
		53.848,239.821 41.311,241.29 47.699,213.626 	"/>
	<polygon style="fill:none;stroke:#231F20;stroke-linecap:round;stroke-linejoin:round;stroke-miterlimit:10;" points="
		112.081,255.069 159.359,246.271 185.412,255.243 	"/>
	<polygon style="fill:#FFFFFF;stroke:#231F20;stroke-linecap:round;stroke-linejoin:round;stroke-miterlimit:10;" points="
		159.359,246.271 112.081,255.069 160.129,231.745 	"/>
	<polygon style="fill:none;stroke:#231F20;stroke-linecap:round;stroke-linejoin:round;stroke-miterlimit:10;" points="
		185.412,255.243 159.359,246.271 191.736,245.373 	"/>
	<polygon style="fill:none;stroke:#231F20;stroke-linecap:round;stroke-linejoin:round;stroke-miterlimit:10;" points="
		187.637,228.433 191.736,245.373 160.129,231.745 	"/>
	<polygon style="fill:none;stroke:#231F20;stroke-linecap:round;stroke-linejoin:round;stroke-miterlimit:10;" points="
		191.736,245.373 159.359,246.271 160.129,231.745 	"/>
	<polygon style="fill:#FFFFFF;stroke:#231F20;stroke-linecap:round;stroke-linejoin:round;stroke-miterlimit:10;" points="
		145.108,199.581 117.511,223.529 142.969,185.964 	"/>
	<polygon style="fill:#FFFFFF;stroke:#231F20;stroke-linecap:round;stroke-linejoin:round;stroke-miterlimit:10;" points="
		158.119,197.986 117.511,223.529 145.108,199.581 	"/>
	<polygon style="fill:#FFFFFF;stroke:#231F20;stroke-linecap:round;stroke-linejoin:round;stroke-miterlimit:10;" points="
		122.135,211.843 142.969,185.964 117.511,223.529 	"/>
	<polygon style="fill:#FFFFFF;stroke:#200A1E;stroke-linecap:round;stroke-linejoin:round;stroke-miterlimit:10;" points="
		102.902,222.068 100.088,219.372 122.135,211.843 	"/>
	<polygon style="fill:#FFFFFF;stroke:#320B1D;stroke-linecap:round;stroke-linejoin:round;stroke-miterlimit:10;" points="
		102.902,222.068 122.135,211.843 117.511,223.529 	"/>
	<polygon style="fill:none;stroke:#231F20;stroke-linecap:round;stroke-linejoin:round;stroke-miterlimit:10;" points="
		85.613,234.91 112.01,241.009 44.582,255.095 	"/>
	
		<line style="fill:#FFFFFF;stroke:#231F20;stroke-linecap:round;stroke-linejoin:round;stroke-miterlimit:10;" x1="97.444" y1="229.381" x2="86.389" y2="234.388"/>
	<polygon style="fill:none;stroke:#231F20;stroke-linecap:round;stroke-linejoin:round;stroke-miterlimit:10;" points="
		97.116,119.6 108.027,126.323 100.53,116.609 	"/>
	<polygon style="fill:none;stroke:#231F20;stroke-linecap:round;stroke-linejoin:round;stroke-miterlimit:10;" points="
		104.039,57.401 107.859,12.416 112.014,57.401 	"/>
	<polygon style="fill:none;stroke:#231F20;stroke-linecap:round;stroke-linejoin:round;stroke-miterlimit:10;" points="
		97.116,57.886 104.039,57.401 84.967,79.592 	"/>
	<polygon style="fill:none;stroke:#231F20;stroke-linecap:round;stroke-linejoin:round;stroke-miterlimit:10;" points="
		114.532,64.932 112.014,57.401 131.31,79.592 	"/>
	<polygon style="fill:none;stroke:#231F20;stroke-linecap:round;stroke-linejoin:round;stroke-miterlimit:10;" points="
		114.532,64.932 108.027,95.628 103.229,64.932 	"/>
</g>
<g>
	<g>
		<g>
			<path style="fill:none;stroke:#000000;stroke-width:1.5;stroke-miterlimit:10;" d="M103.872,270.324
				c-2.129,0-3.126-0.915-4.39-2.073c-1.407-1.29-3.002-2.753-6.137-2.753c-3.134,0-4.729,1.463-6.137,2.753
				c-1.263,1.158-2.261,2.073-4.389,2.073c-2.129,0-3.126-0.915-4.389-2.073c-1.407-1.29-3.002-2.753-6.137-2.753
				c-3.134,0-4.729,1.463-6.137,2.753c-1.263,1.158-2.261,2.073-4.389,2.073c-2.128,0-3.126-0.915-4.389-2.073
				c-1.407-1.29-3.002-2.753-6.136-2.753c-3.134,0-4.729,1.463-6.137,2.753c-1.263,1.158-2.261,2.073-4.389,2.073
				c-2.128,0-3.126-0.915-4.389-2.073c-1.407-1.29-3.002-2.753-6.137-2.753"/>
		</g>
	</g>
	<g>
		<g>
			<path style="fill:none;stroke:#000000;stroke-width:1.5;stroke-miterlimit:10;" d="M89.872,282.498
				c-2.129,0-3.126-0.915-4.39-2.073c-1.407-1.29-3.002-2.753-6.137-2.753c-3.134,0-4.729,1.463-6.137,2.753
				c-1.263,1.158-2.261,2.073-4.389,2.073c-2.129,0-3.126-0.915-4.389-2.073c-1.407-1.29-3.002-2.753-6.137-2.753
				c-3.135,0-4.729,1.463-6.137,2.753c-1.263,1.158-2.261,2.073-4.389,2.073c-2.128,0-3.126-0.915-4.389-2.073
				c-0.161-0.148-0.322-0.296-0.486-0.442"/>
		</g>
	</g>
	<g>
		<g>
			<path style="fill:none;stroke:#000000;stroke-width:1.5;stroke-miterlimit:10;" d="M183.938,270.324
				c-2.129,0-3.126-0.915-4.39-2.073c-1.407-1.29-3.002-2.753-6.137-2.753s-4.729,1.463-6.137,2.753
				c-1.263,1.158-2.261,2.073-4.389,2.073c-2.129,0-3.126-0.915-4.389-2.073c-1.407-1.29-3.002-2.753-6.137-2.753
				c-3.134,0-4.729,1.463-6.137,2.753c-1.263,1.158-2.261,2.073-4.389,2.073c-2.128,0-3.126-0.915-4.389-2.073
				c-1.407-1.29-3.002-2.753-6.136-2.753s-4.729,1.463-6.137,2.753c-1.263,1.158-2.261,2.073-4.389,2.073s-3.126-0.915-4.389-2.073
				c-1.407-1.29-3.002-2.753-6.137-2.753"/>
		</g>
	</g>
	<g>
		<g>
			<path style="fill:none;stroke:#000000;stroke-width:1.5;stroke-miterlimit:10;" d="M169.938,282.498
				c-2.129,0-3.126-0.915-4.39-2.073c-1.407-1.29-3.002-2.753-6.137-2.753c-3.134,0-4.729,1.463-6.137,2.753
				c-1.263,1.158-2.261,2.073-4.389,2.073c-2.129,0-3.126-0.915-4.389-2.073c-1.407-1.29-3.002-2.753-6.137-2.753
				c-3.135,0-4.729,1.463-6.137,2.753c-1.263,1.158-2.261,2.073-4.389,2.073c-2.128,0-3.126-0.915-4.389-2.073
				c-0.161-0.148-0.322-0.296-0.486-0.442"/>
		</g>
	</g>
	<g>
		<g>
			<path style="fill:none;stroke:#000000;stroke-width:1.5;stroke-miterlimit:10;" d="M119.152,277.865
				c-0.576-0.129-1.196-0.194-1.843-0.194c-3.134,0-4.729,1.463-6.137,2.753c-1.263,1.158-2.261,2.073-4.389,2.073
				c-2.128,0-3.126-0.915-4.389-2.073c-1.407-1.29-3.002-2.753-6.137-2.753"/>
		</g>
	</g>
</g>
</svg>
